solid csg.js
facet normal -1 0 0
outer loop
vertex 0 0 0
vertex 0 0 3.0001
vertex 0 1.0001 3.0001
endloop
endfacet
facet normal -1 0 0
outer loop
vertex 0 0 0
vertex 0 1.0001 3.0001
vertex 0 1.0001 0
endloop
endfacet
facet normal 0 -1 0
outer loop
vertex 1 0 0
vertex 1 0 3.0001
vertex 0 0 3.0001
endloop
endfacet
facet normal 0 -1 0
outer loop
vertex 1 0 0
vertex 0 0 3.0001
vertex 0 0 0
endloop
endfacet
facet normal 0 -1 0
outer loop
vertex 16.0001 0 0
vertex 16.0001 0 3.0001
vertex 15.0001 0 3.0001
endloop
endfacet
facet normal 0 -1 0
outer loop
vertex 16.0001 0 0
vertex 15.0001 0 3.0001
vertex 15.0001 0 0
endloop
endfacet
facet normal 0 1 0
outer loop
vertex 3.0000999999999998 1.0001 3.0001
vertex 3.0000999999999998 1.0001 0
vertex 0 1.0001 0
endloop
endfacet
facet normal 0 1 0
outer loop
vertex 3.0000999999999998 1.0001 3.0001
vertex 0 1.0001 0
vertex 0 1.0001 3.0001
endloop
endfacet
facet normal 0 1 0
outer loop
vertex 9.0001 1.0001 3.0001
vertex 9.0001 1.0001 0
vertex 7 1.0001 0
endloop
endfacet
facet normal 0 1 0
outer loop
vertex 9.0001 1.0001 3.0001
vertex 7 1.0001 0
vertex 7 1.0001 3.0001
endloop
endfacet
facet normal 0 1 0
outer loop
vertex 16.0001 1.0001 3.0001
vertex 16.0001 1.0001 0
vertex 13 1.0001 0
endloop
endfacet
facet normal 0 1 0
outer loop
vertex 16.0001 1.0001 3.0001
vertex 13 1.0001 0
vertex 13 1.0001 3.0001
endloop
endfacet
facet normal 0 0 -1
outer loop
vertex 3.0000999999999998 1.0001 0
vertex 3.0000999999999998 0.00009999999999998899 0
vertex 0 0.00009999999999998899 0
endloop
endfacet
facet normal 0 0 -1
outer loop
vertex 3.0000999999999998 1.0001 0
vertex 0 0.00009999999999998899 0
vertex 0 1.0001 0
endloop
endfacet
facet normal 0 0 -1
outer loop
vertex 16.0001 1.0001 0
vertex 16.0001 0.00009999999999998899 0
vertex 13 0.00009999999999998899 0
endloop
endfacet
facet normal 0 0 -1
outer loop
vertex 16.0001 1.0001 0
vertex 13 0.00009999999999998899 0
vertex 13 1.0001 0
endloop
endfacet
facet normal 0 0 -1
outer loop
vertex 4.0001 0.00009999999999998899 0
vertex 4.0001 0 0
vertex 0 0 0
endloop
endfacet
facet normal 0 0 -1
outer loop
vertex 4.0001 0.00009999999999998899 0
vertex 0 0 0
vertex 0 0.00009999999999998899 0
endloop
endfacet
facet normal 0 0 -1
outer loop
vertex 16.0001 0.00009999999999998899 0
vertex 16.0001 0 0
vertex 12 0 0
endloop
endfacet
facet normal 0 0 -1
outer loop
vertex 16.0001 0.00009999999999998899 0
vertex 12 0 0
vertex 12 0.00009999999999998899 0
endloop
endfacet
facet normal 0 0 -1
outer loop
vertex 4.0001 0 0
vertex 4.0001 -0.9999 0
vertex 1 -0.9999 0
endloop
endfacet
facet normal 0 0 -1
outer loop
vertex 4.0001 0 0
vertex 1 -0.9999 0
vertex 1 0 0
endloop
endfacet
facet normal 0 0 -1
outer loop
vertex 9.0001 1.0001 0
vertex 9.0001 -0.9999 0
vertex 7 -0.9999 0
endloop
endfacet
facet normal 0 0 -1
outer loop
vertex 9.0001 1.0001 0
vertex 7 -0.9999 0
vertex 7 1.0001 0
endloop
endfacet
facet normal 0 0 -1
outer loop
vertex 15.0001 0 0
vertex 15.0001 -0.9999 0
vertex 12 -0.9999 0
endloop
endfacet
facet normal 0 0 -1
outer loop
vertex 15.0001 0 0
vertex 12 -0.9999 0
vertex 12 0 0
endloop
endfacet
facet normal 0 0 -1
outer loop
vertex 15.0001 -0.9999 0
vertex 15.0001 -1 0
vertex 1 -1 0
endloop
endfacet
facet normal 0 0 -1
outer loop
vertex 15.0001 -0.9999 0
vertex 1 -1 0
vertex 1 -0.9999 0
endloop
endfacet
facet normal 0 0 -1
outer loop
vertex 14.0001 -1 0
vertex 14.0001 -2 0
vertex 2 -2 0
endloop
endfacet
facet normal 0 0 -1
outer loop
vertex 14.0001 -1 0
vertex 2 -2 0
vertex 2 -1 0
endloop
endfacet
facet normal 0 0 -1
outer loop
vertex 13.0001 -2 0
vertex 13.0001 -3 0
vertex 3 -3 0
endloop
endfacet
facet normal 0 0 -1
outer loop
vertex 13.0001 -2 0
vertex 3 -3 0
vertex 3 -2 0
endloop
endfacet
facet normal 0 0 -1
outer loop
vertex 5.0001 -3 0
vertex 5.0001 -4.9999 0
vertex 3 -4.9999 0
endloop
endfacet
facet normal 0 0 -1
outer loop
vertex 5.0001 -3 0
vertex 3 -4.9999 0
vertex 3 -3 0
endloop
endfacet
facet normal 0 0 -1
outer loop
vertex 9.0001 -3 0
vertex 9.0001 -4.9999 0
vertex 7 -4.9999 0
endloop
endfacet
facet normal 0 0 -1
outer loop
vertex 9.0001 -3 0
vertex 7 -4.9999 0
vertex 7 -3 0
endloop
endfacet
facet normal 0 0 -1
outer loop
vertex 13.0001 -3 0
vertex 13.0001 -4.9999 0
vertex 11 -4.9999 0
endloop
endfacet
facet normal 0 0 -1
outer loop
vertex 13.0001 -3 0
vertex 11 -4.9999 0
vertex 11 -3 0
endloop
endfacet
facet normal 0 0 -1
outer loop
vertex 13.0001 -4.9999 0
vertex 13.0001 -6 0
vertex 3 -6 0
endloop
endfacet
facet normal 0 0 -1
outer loop
vertex 13.0001 -4.9999 0
vertex 3 -6 0
vertex 3 -4.9999 0
endloop
endfacet
facet normal 0 0 -1
outer loop
vertex 12.0001 -6 0
vertex 12.0001 -7 0
vertex 4 -7 0
endloop
endfacet
facet normal 0 0 -1
outer loop
vertex 12.0001 -6 0
vertex 4 -7 0
vertex 4 -6 0
endloop
endfacet
facet normal 0 0 -1
outer loop
vertex 10.0001 -7 0
vertex 10.0001 -8 0
vertex 6 -8 0
endloop
endfacet
facet normal 0 0 -1
outer loop
vertex 10.0001 -7 0
vertex 6 -8 0
vertex 6 -7 0
endloop
endfacet
facet normal 0 0 -1
outer loop
vertex 9.0001 -8 0
vertex 9.0001 -11.9999 0
vertex 7 -11.9999 0
endloop
endfacet
facet normal 0 0 -1
outer loop
vertex 9.0001 -8 0
vertex 7 -11.9999 0
vertex 7 -8 0
endloop
endfacet
facet normal 0 0 -1
outer loop
vertex 10.0001 -11.9999 0
vertex 10.0001 -12.9999 0
vertex 6 -12.9999 0
endloop
endfacet
facet normal 0 0 -1
outer loop
vertex 10.0001 -11.9999 0
vertex 6 -12.9999 0
vertex 6 -11.9999 0
endloop
endfacet
facet normal 0 0 -1
outer loop
vertex 12.0001 -12.9999 0
vertex 12.0001 -13.9999 0
vertex 4 -13.9999 0
endloop
endfacet
facet normal 0 0 -1
outer loop
vertex 12.0001 -12.9999 0
vertex 4 -13.9999 0
vertex 4 -12.9999 0
endloop
endfacet
facet normal 0 0 -1
outer loop
vertex 13.0001 -13.9999 0
vertex 13.0001 -15 0
vertex 3 -15 0
endloop
endfacet
facet normal 0 0 -1
outer loop
vertex 13.0001 -13.9999 0
vertex 3 -15 0
vertex 3 -13.9999 0
endloop
endfacet
facet normal 0 0 1
outer loop
vertex 13.0001 -15 3.0001
vertex 13.0001 -13.9999 3.0001
vertex 3 -13.9999 3.0001
endloop
endfacet
facet normal 0 0 1
outer loop
vertex 13.0001 -15 3.0001
vertex 3 -13.9999 3.0001
vertex 3 -15 3.0001
endloop
endfacet
facet normal 0 0 1
outer loop
vertex 12.0001 -13.9999 3.0001
vertex 12.0001 -12.9999 3.0001
vertex 4 -12.9999 3.0001
endloop
endfacet
facet normal 0 0 1
outer loop
vertex 12.0001 -13.9999 3.0001
vertex 4 -12.9999 3.0001
vertex 4 -13.9999 3.0001
endloop
endfacet
facet normal 0 0 1
outer loop
vertex 10.0001 -12.9999 3.0001
vertex 10.0001 -11.9999 3.0001
vertex 6 -11.9999 3.0001
endloop
endfacet
facet normal 0 0 1
outer loop
vertex 10.0001 -12.9999 3.0001
vertex 6 -11.9999 3.0001
vertex 6 -12.9999 3.0001
endloop
endfacet
facet normal 0 0 1
outer loop
vertex 9.0001 -11.9999 3.0001
vertex 9.0001 -8 3.0001
vertex 7 -8 3.0001
endloop
endfacet
facet normal 0 0 1
outer loop
vertex 9.0001 -11.9999 3.0001
vertex 7 -8 3.0001
vertex 7 -11.9999 3.0001
endloop
endfacet
facet normal 0 0 1
outer loop
vertex 10.0001 -8 3.0001
vertex 10.0001 -7 3.0001
vertex 6 -7 3.0001
endloop
endfacet
facet normal 0 0 1
outer loop
vertex 10.0001 -8 3.0001
vertex 6 -7 3.0001
vertex 6 -8 3.0001
endloop
endfacet
facet normal 0 0 1
outer loop
vertex 12.0001 -7 3.0001
vertex 12.0001 -6 3.0001
vertex 4 -6 3.0001
endloop
endfacet
facet normal 0 0 1
outer loop
vertex 12.0001 -7 3.0001
vertex 4 -6 3.0001
vertex 4 -7 3.0001
endloop
endfacet
facet normal 0 0 1
outer loop
vertex 13.0001 -6 3.0001
vertex 13.0001 -4.9999 3.0001
vertex 3 -4.9999 3.0001
endloop
endfacet
facet normal 0 0 1
outer loop
vertex 13.0001 -6 3.0001
vertex 3 -4.9999 3.0001
vertex 3 -6 3.0001
endloop
endfacet
facet normal 0 0 1
outer loop
vertex 5.0001 -4.9999 3.0001
vertex 5.0001 -3 3.0001
vertex 3 -3 3.0001
endloop
endfacet
facet normal 0 0 1
outer loop
vertex 5.0001 -4.9999 3.0001
vertex 3 -3 3.0001
vertex 3 -4.9999 3.0001
endloop
endfacet
facet normal 0 0 1
outer loop
vertex 9.0001 -4.9999 3.0001
vertex 9.0001 -3 3.0001
vertex 7 -3 3.0001
endloop
endfacet
facet normal 0 0 1
outer loop
vertex 9.0001 -4.9999 3.0001
vertex 7 -3 3.0001
vertex 7 -4.9999 3.0001
endloop
endfacet
facet normal 0 0 1
outer loop
vertex 13.0001 -4.9999 3.0001
vertex 13.0001 -3 3.0001
vertex 11 -3 3.0001
endloop
endfacet
facet normal 0 0 1
outer loop
vertex 13.0001 -4.9999 3.0001
vertex 11 -3 3.0001
vertex 11 -4.9999 3.0001
endloop
endfacet
facet normal 0 0 1
outer loop
vertex 13.0001 -3 3.0001
vertex 13.0001 -2 3.0001
vertex 3 -2 3.0001
endloop
endfacet
facet normal 0 0 1
outer loop
vertex 13.0001 -3 3.0001
vertex 3 -2 3.0001
vertex 3 -3 3.0001
endloop
endfacet
facet normal 0 0 1
outer loop
vertex 14.0001 -2 3.0001
vertex 14.0001 -1 3.0001
vertex 2 -1 3.0001
endloop
endfacet
facet normal 0 0 1
outer loop
vertex 14.0001 -2 3.0001
vertex 2 -1 3.0001
vertex 2 -2 3.0001
endloop
endfacet
facet normal 0 0 1
outer loop
vertex 15.0001 -1 3.0001
vertex 15.0001 -0.9999 3.0001
vertex 1 -0.9999 3.0001
endloop
endfacet
facet normal 0 0 1
outer loop
vertex 15.0001 -1 3.0001
vertex 1 -0.9999 3.0001
vertex 1 -1 3.0001
endloop
endfacet
facet normal 0 0 1
outer loop
vertex 4.0001 -0.9999 3.0001
vertex 4.0001 0 3.0001
vertex 1 0 3.0001
endloop
endfacet
facet normal 0 0 1
outer loop
vertex 4.0001 -0.9999 3.0001
vertex 1 0 3.0001
vertex 1 -0.9999 3.0001
endloop
endfacet
facet normal 0 0 1
outer loop
vertex 15.0001 -0.9999 3.0001
vertex 15.0001 0 3.0001
vertex 12 0 3.0001
endloop
endfacet
facet normal 0 0 1
outer loop
vertex 15.0001 -0.9999 3.0001
vertex 12 0 3.0001
vertex 12 -0.9999 3.0001
endloop
endfacet
facet normal 0 0 1
outer loop
vertex 4.0001 0 3.0001
vertex 4.0001 0.00009999999999998899 3.0001
vertex 0 0.00009999999999998899 3.0001
endloop
endfacet
facet normal 0 0 1
outer loop
vertex 4.0001 0 3.0001
vertex 0 0.00009999999999998899 3.0001
vertex 0 0 3.0001
endloop
endfacet
facet normal 0 0 1
outer loop
vertex 16.0001 0 3.0001
vertex 16.0001 0.00009999999999998899 3.0001
vertex 12 0.00009999999999998899 3.0001
endloop
endfacet
facet normal 0 0 1
outer loop
vertex 16.0001 0 3.0001
vertex 12 0.00009999999999998899 3.0001
vertex 12 0 3.0001
endloop
endfacet
facet normal 0 0 1
outer loop
vertex 3.0000999999999998 0.00009999999999998899 3.0001
vertex 3.0000999999999998 1.0001 3.0001
vertex 0 1.0001 3.0001
endloop
endfacet
facet normal 0 0 1
outer loop
vertex 3.0000999999999998 0.00009999999999998899 3.0001
vertex 0 1.0001 3.0001
vertex 0 0.00009999999999998899 3.0001
endloop
endfacet
facet normal 0 0 1
outer loop
vertex 9.0001 -0.9999 3.0001
vertex 9.0001 1.0001 3.0001
vertex 7 1.0001 3.0001
endloop
endfacet
facet normal 0 0 1
outer loop
vertex 9.0001 -0.9999 3.0001
vertex 7 1.0001 3.0001
vertex 7 -0.9999 3.0001
endloop
endfacet
facet normal 0 0 1
outer loop
vertex 16.0001 0.00009999999999998899 3.0001
vertex 16.0001 1.0001 3.0001
vertex 13 1.0001 3.0001
endloop
endfacet
facet normal 0 0 1
outer loop
vertex 16.0001 0.00009999999999998899 3.0001
vertex 13 1.0001 3.0001
vertex 13 0.00009999999999998899 3.0001
endloop
endfacet
facet normal 1 0 0
outer loop
vertex 3.0000999999999998 1.0001 0
vertex 3.0000999999999998 1.0001 3.0001
vertex 3.0000999999999998 0.00009999999999998899 3.0001
endloop
endfacet
facet normal 1 0 0
outer loop
vertex 3.0000999999999998 1.0001 0
vertex 3.0000999999999998 0.00009999999999998899 3.0001
vertex 3.0000999999999998 0.00009999999999998899 0
endloop
endfacet
facet normal -1 0 0
outer loop
vertex 7 -8 3.0001
vertex 7 -8 0
vertex 7 -11.9999 0
endloop
endfacet
facet normal -1 0 0
outer loop
vertex 7 -8 3.0001
vertex 7 -11.9999 0
vertex 7 -11.9999 3.0001
endloop
endfacet
facet normal -1 0 0
outer loop
vertex 7 -3 3.0001
vertex 7 -3 0
vertex 7 -4.9999 0
endloop
endfacet
facet normal -1 0 0
outer loop
vertex 7 -3 3.0001
vertex 7 -4.9999 0
vertex 7 -4.9999 3.0001
endloop
endfacet
facet normal -1 0 0
outer loop
vertex 7 1.0001 3.0001
vertex 7 1.0001 0
vertex 7 -0.9999 0
endloop
endfacet
facet normal -1 0 0
outer loop
vertex 7 1.0001 3.0001
vertex 7 -0.9999 0
vertex 7 -0.9999 3.0001
endloop
endfacet
facet normal 1 0 0
outer loop
vertex 9.0001 -8 0
vertex 9.0001 -8 3.0001
vertex 9.0001 -11.9999 3.0001
endloop
endfacet
facet normal 1 0 0
outer loop
vertex 9.0001 -8 0
vertex 9.0001 -11.9999 3.0001
vertex 9.0001 -11.9999 0
endloop
endfacet
facet normal 1 0 0
outer loop
vertex 9.0001 -3 0
vertex 9.0001 -3 3.0001
vertex 9.0001 -4.9999 3.0001
endloop
endfacet
facet normal 1 0 0
outer loop
vertex 9.0001 -3 0
vertex 9.0001 -4.9999 3.0001
vertex 9.0001 -4.9999 0
endloop
endfacet
facet normal 1 0 0
outer loop
vertex 9.0001 1.0001 0
vertex 9.0001 1.0001 3.0001
vertex 9.0001 -0.9999 3.0001
endloop
endfacet
facet normal 1 0 0
outer loop
vertex 9.0001 1.0001 0
vertex 9.0001 -0.9999 3.0001
vertex 9.0001 -0.9999 0
endloop
endfacet
facet normal -1 0 0
outer loop
vertex 13 0.00009999999999998899 3.0001
vertex 13 1.0001 3.0001
vertex 13 1.0001 0
endloop
endfacet
facet normal -1 0 0
outer loop
vertex 13 0.00009999999999998899 3.0001
vertex 13 1.0001 0
vertex 13 0.00009999999999998899 0
endloop
endfacet
facet normal 1 0 0
outer loop
vertex 16.0001 0 0
vertex 16.0001 1.0001 0
vertex 16.0001 1.0001 3.0001
endloop
endfacet
facet normal 1 0 0
outer loop
vertex 16.0001 0 0
vertex 16.0001 1.0001 3.0001
vertex 16.0001 0 3.0001
endloop
endfacet
facet normal -1 0 0
outer loop
vertex 1 -1 0
vertex 1 -1 3.0001
vertex 1 0 3.0001
endloop
endfacet
facet normal -1 0 0
outer loop
vertex 1 -1 0
vertex 1 0 3.0001
vertex 1 0 0
endloop
endfacet
facet normal 0 -1 0
outer loop
vertex 2 -1 0
vertex 2 -1 3.0001
vertex 1 -1 3.0001
endloop
endfacet
facet normal 0 -1 0
outer loop
vertex 2 -1 0
vertex 1 -1 3.0001
vertex 1 -1 0
endloop
endfacet
facet normal 0 -1 0
outer loop
vertex 15.0001 -1 0
vertex 15.0001 -1 3.0001
vertex 14.0001 -1 3.0001
endloop
endfacet
facet normal 0 -1 0
outer loop
vertex 15.0001 -1 0
vertex 14.0001 -1 3.0001
vertex 14.0001 -1 0
endloop
endfacet
facet normal 1 0 0
outer loop
vertex 4.0001 0.00009999999999998899 0
vertex 4.0001 0.00009999999999998899 3.0001
vertex 4.0001 -0.9999 3.0001
endloop
endfacet
facet normal 1 0 0
outer loop
vertex 4.0001 0.00009999999999998899 0
vertex 4.0001 -0.9999 3.0001
vertex 4.0001 -0.9999 0
endloop
endfacet
facet normal 0 1 0
outer loop
vertex 4.0001 0.00009999999999998899 3.0001
vertex 4.0001 0.00009999999999998899 0
vertex 3.0000999999999998 0.00009999999999998899 0
endloop
endfacet
facet normal 0 1 0
outer loop
vertex 4.0001 0.00009999999999998899 3.0001
vertex 3.0000999999999998 0.00009999999999998899 0
vertex 3.0000999999999998 0.00009999999999998899 3.0001
endloop
endfacet
facet normal 0 1 0
outer loop
vertex 13 0.00009999999999998899 3.0001
vertex 13 0.00009999999999998899 0
vertex 12 0.00009999999999998899 0
endloop
endfacet
facet normal 0 1 0
outer loop
vertex 13 0.00009999999999998899 3.0001
vertex 12 0.00009999999999998899 0
vertex 12 0.00009999999999998899 3.0001
endloop
endfacet
facet normal -1 0 0
outer loop
vertex 12 0.00009999999999998899 3.0001
vertex 12 0.00009999999999998899 0
vertex 12 -0.9999 0
endloop
endfacet
facet normal -1 0 0
outer loop
vertex 12 0.00009999999999998899 3.0001
vertex 12 -0.9999 0
vertex 12 -0.9999 3.0001
endloop
endfacet
facet normal 1 0 0
outer loop
vertex 15.0001 -1 0
vertex 15.0001 0 0
vertex 15.0001 0 3.0001
endloop
endfacet
facet normal 1 0 0
outer loop
vertex 15.0001 -1 0
vertex 15.0001 0 3.0001
vertex 15.0001 -1 3.0001
endloop
endfacet
facet normal -1 0 0
outer loop
vertex 2 -2 0
vertex 2 -2 3.0001
vertex 2 -1 3.0001
endloop
endfacet
facet normal -1 0 0
outer loop
vertex 2 -2 0
vertex 2 -1 3.0001
vertex 2 -1 0
endloop
endfacet
facet normal 0 -1 0
outer loop
vertex 3 -2 0
vertex 3 -2 3.0001
vertex 2 -2 3.0001
endloop
endfacet
facet normal 0 -1 0
outer loop
vertex 3 -2 0
vertex 2 -2 3.0001
vertex 2 -2 0
endloop
endfacet
facet normal 0 -1 0
outer loop
vertex 14.0001 -2 0
vertex 14.0001 -2 3.0001
vertex 13.0001 -2 3.0001
endloop
endfacet
facet normal 0 -1 0
outer loop
vertex 14.0001 -2 0
vertex 13.0001 -2 3.0001
vertex 13.0001 -2 0
endloop
endfacet
facet normal 0 1 0
outer loop
vertex 7 -0.9999 3.0001
vertex 7 -0.9999 0
vertex 4.0001 -0.9999 0
endloop
endfacet
facet normal 0 1 0
outer loop
vertex 7 -0.9999 3.0001
vertex 4.0001 -0.9999 0
vertex 4.0001 -0.9999 3.0001
endloop
endfacet
facet normal 0 1 0
outer loop
vertex 12 -0.9999 3.0001
vertex 12 -0.9999 0
vertex 9.0001 -0.9999 0
endloop
endfacet
facet normal 0 1 0
outer loop
vertex 12 -0.9999 3.0001
vertex 9.0001 -0.9999 0
vertex 9.0001 -0.9999 3.0001
endloop
endfacet
facet normal 1 0 0
outer loop
vertex 14.0001 -2 0
vertex 14.0001 -1 0
vertex 14.0001 -1 3.0001
endloop
endfacet
facet normal 1 0 0
outer loop
vertex 14.0001 -2 0
vertex 14.0001 -1 3.0001
vertex 14.0001 -2 3.0001
endloop
endfacet
facet normal -1 0 0
outer loop
vertex 3 -13.9999 3.0001
vertex 3 -13.9999 0
vertex 3 -15 0
endloop
endfacet
facet normal -1 0 0
outer loop
vertex 3 -13.9999 3.0001
vertex 3 -15 0
vertex 3 -15 3.0001
endloop
endfacet
facet normal -1 0 0
outer loop
vertex 3 -2 3.0001
vertex 3 -2 0
vertex 3 -6 0
endloop
endfacet
facet normal -1 0 0
outer loop
vertex 3 -2 3.0001
vertex 3 -6 0
vertex 3 -6 3.0001
endloop
endfacet
facet normal 0 -1 0
outer loop
vertex 7 -3 0
vertex 7 -3 3.0001
vertex 5.0001 -3 3.0001
endloop
endfacet
facet normal 0 -1 0
outer loop
vertex 7 -3 0
vertex 5.0001 -3 3.0001
vertex 5.0001 -3 0
endloop
endfacet
facet normal 0 -1 0
outer loop
vertex 11 -3 0
vertex 11 -3 3.0001
vertex 9.0001 -3 3.0001
endloop
endfacet
facet normal 0 -1 0
outer loop
vertex 11 -3 0
vertex 9.0001 -3 3.0001
vertex 9.0001 -3 0
endloop
endfacet
facet normal 1 0 0
outer loop
vertex 13.0001 -13.9999 0
vertex 13.0001 -13.9999 3.0001
vertex 13.0001 -15 3.0001
endloop
endfacet
facet normal 1 0 0
outer loop
vertex 13.0001 -13.9999 0
vertex 13.0001 -15 3.0001
vertex 13.0001 -15 0
endloop
endfacet
facet normal 1 0 0
outer loop
vertex 13.0001 -2 0
vertex 13.0001 -2 3.0001
vertex 13.0001 -6 3.0001
endloop
endfacet
facet normal 1 0 0
outer loop
vertex 13.0001 -2 0
vertex 13.0001 -6 3.0001
vertex 13.0001 -6 0
endloop
endfacet
facet normal 1 0 0
outer loop
vertex 5.0001 -3 0
vertex 5.0001 -3 3.0001
vertex 5.0001 -4.9999 3.0001
endloop
endfacet
facet normal 1 0 0
outer loop
vertex 5.0001 -3 0
vertex 5.0001 -4.9999 3.0001
vertex 5.0001 -4.9999 0
endloop
endfacet
facet normal -1 0 0
outer loop
vertex 11 -3 3.0001
vertex 11 -3 0
vertex 11 -4.9999 0
endloop
endfacet
facet normal -1 0 0
outer loop
vertex 11 -3 3.0001
vertex 11 -4.9999 0
vertex 11 -4.9999 3.0001
endloop
endfacet
facet normal 0 -1 0
outer loop
vertex 4 -6 0
vertex 4 -6 3.0001
vertex 3 -6 3.0001
endloop
endfacet
facet normal 0 -1 0
outer loop
vertex 4 -6 0
vertex 3 -6 3.0001
vertex 3 -6 0
endloop
endfacet
facet normal 0 -1 0
outer loop
vertex 13.0001 -6 0
vertex 13.0001 -6 3.0001
vertex 12.0001 -6 3.0001
endloop
endfacet
facet normal 0 -1 0
outer loop
vertex 13.0001 -6 0
vertex 12.0001 -6 3.0001
vertex 12.0001 -6 0
endloop
endfacet
facet normal 0 1 0
outer loop
vertex 7 -4.9999 3.0001
vertex 7 -4.9999 0
vertex 5.0001 -4.9999 0
endloop
endfacet
facet normal 0 1 0
outer loop
vertex 7 -4.9999 3.0001
vertex 5.0001 -4.9999 0
vertex 5.0001 -4.9999 3.0001
endloop
endfacet
facet normal 0 1 0
outer loop
vertex 11 -4.9999 3.0001
vertex 11 -4.9999 0
vertex 9.0001 -4.9999 0
endloop
endfacet
facet normal 0 1 0
outer loop
vertex 11 -4.9999 3.0001
vertex 9.0001 -4.9999 0
vertex 9.0001 -4.9999 3.0001
endloop
endfacet
facet normal -1 0 0
outer loop
vertex 4 -12.9999 3.0001
vertex 4 -12.9999 0
vertex 4 -13.9999 0
endloop
endfacet
facet normal -1 0 0
outer loop
vertex 4 -12.9999 3.0001
vertex 4 -13.9999 0
vertex 4 -13.9999 3.0001
endloop
endfacet
facet normal -1 0 0
outer loop
vertex 4 -6 3.0001
vertex 4 -6 0
vertex 4 -7 0
endloop
endfacet
facet normal -1 0 0
outer loop
vertex 4 -6 3.0001
vertex 4 -7 0
vertex 4 -7 3.0001
endloop
endfacet
facet normal 0 -1 0
outer loop
vertex 6 -7 0
vertex 6 -7 3.0001
vertex 4 -7 3.0001
endloop
endfacet
facet normal 0 -1 0
outer loop
vertex 6 -7 0
vertex 4 -7 3.0001
vertex 4 -7 0
endloop
endfacet
facet normal 0 -1 0
outer loop
vertex 12.0001 -7 0
vertex 12.0001 -7 3.0001
vertex 10.0001 -7 3.0001
endloop
endfacet
facet normal 0 -1 0
outer loop
vertex 12.0001 -7 0
vertex 10.0001 -7 3.0001
vertex 10.0001 -7 0
endloop
endfacet
facet normal 1 0 0
outer loop
vertex 12.0001 -12.9999 0
vertex 12.0001 -12.9999 3.0001
vertex 12.0001 -13.9999 3.0001
endloop
endfacet
facet normal 1 0 0
outer loop
vertex 12.0001 -12.9999 0
vertex 12.0001 -13.9999 3.0001
vertex 12.0001 -13.9999 0
endloop
endfacet
facet normal 1 0 0
outer loop
vertex 12.0001 -6 0
vertex 12.0001 -6 3.0001
vertex 12.0001 -7 3.0001
endloop
endfacet
facet normal 1 0 0
outer loop
vertex 12.0001 -6 0
vertex 12.0001 -7 3.0001
vertex 12.0001 -7 0
endloop
endfacet
facet normal -1 0 0
outer loop
vertex 6 -11.9999 3.0001
vertex 6 -11.9999 0
vertex 6 -12.9999 0
endloop
endfacet
facet normal -1 0 0
outer loop
vertex 6 -11.9999 3.0001
vertex 6 -12.9999 0
vertex 6 -12.9999 3.0001
endloop
endfacet
facet normal -1 0 0
outer loop
vertex 6 -7 3.0001
vertex 6 -7 0
vertex 6 -8 0
endloop
endfacet
facet normal -1 0 0
outer loop
vertex 6 -7 3.0001
vertex 6 -8 0
vertex 6 -8 3.0001
endloop
endfacet
facet normal 0 -1 0
outer loop
vertex 7 -8 0
vertex 7 -8 3.0001
vertex 6 -8 3.0001
endloop
endfacet
facet normal 0 -1 0
outer loop
vertex 7 -8 0
vertex 6 -8 3.0001
vertex 6 -8 0
endloop
endfacet
facet normal 0 -1 0
outer loop
vertex 10.0001 -8 0
vertex 10.0001 -8 3.0001
vertex 9.0001 -8 3.0001
endloop
endfacet
facet normal 0 -1 0
outer loop
vertex 10.0001 -8 0
vertex 9.0001 -8 3.0001
vertex 9.0001 -8 0
endloop
endfacet
facet normal 1 0 0
outer loop
vertex 10.0001 -11.9999 0
vertex 10.0001 -11.9999 3.0001
vertex 10.0001 -12.9999 3.0001
endloop
endfacet
facet normal 1 0 0
outer loop
vertex 10.0001 -11.9999 0
vertex 10.0001 -12.9999 3.0001
vertex 10.0001 -12.9999 0
endloop
endfacet
facet normal 1 0 0
outer loop
vertex 10.0001 -7 0
vertex 10.0001 -7 3.0001
vertex 10.0001 -8 3.0001
endloop
endfacet
facet normal 1 0 0
outer loop
vertex 10.0001 -7 0
vertex 10.0001 -8 3.0001
vertex 10.0001 -8 0
endloop
endfacet
facet normal 0 1 0
outer loop
vertex 7 -11.9999 3.0001
vertex 7 -11.9999 0
vertex 6 -11.9999 0
endloop
endfacet
facet normal 0 1 0
outer loop
vertex 7 -11.9999 3.0001
vertex 6 -11.9999 0
vertex 6 -11.9999 3.0001
endloop
endfacet
facet normal 0 1 0
outer loop
vertex 10.0001 -11.9999 3.0001
vertex 10.0001 -11.9999 0
vertex 9.0001 -11.9999 0
endloop
endfacet
facet normal 0 1 0
outer loop
vertex 10.0001 -11.9999 3.0001
vertex 9.0001 -11.9999 0
vertex 9.0001 -11.9999 3.0001
endloop
endfacet
facet normal 0 1 0
outer loop
vertex 6 -12.9999 3.0001
vertex 6 -12.9999 0
vertex 4 -12.9999 0
endloop
endfacet
facet normal 0 1 0
outer loop
vertex 6 -12.9999 3.0001
vertex 4 -12.9999 0
vertex 4 -12.9999 3.0001
endloop
endfacet
facet normal 0 1 0
outer loop
vertex 12.0001 -12.9999 3.0001
vertex 12.0001 -12.9999 0
vertex 10.0001 -12.9999 0
endloop
endfacet
facet normal 0 1 0
outer loop
vertex 12.0001 -12.9999 3.0001
vertex 10.0001 -12.9999 0
vertex 10.0001 -12.9999 3.0001
endloop
endfacet
facet normal 0 -1 0
outer loop
vertex 13.0001 -15 0
vertex 13.0001 -15 3.0001
vertex 3 -15 3.0001
endloop
endfacet
facet normal 0 -1 0
outer loop
vertex 13.0001 -15 0
vertex 3 -15 3.0001
vertex 3 -15 0
endloop
endfacet
facet normal 0 1 0
outer loop
vertex 4 -13.9999 3.0001
vertex 4 -13.9999 0
vertex 3 -13.9999 0
endloop
endfacet
facet normal 0 1 0
outer loop
vertex 4 -13.9999 3.0001
vertex 3 -13.9999 0
vertex 3 -13.9999 3.0001
endloop
endfacet
facet normal 0 1 0
outer loop
vertex 13.0001 -13.9999 3.0001
vertex 13.0001 -13.9999 0
vertex 12.0001 -13.9999 0
endloop
endfacet
facet normal 0 1 0
outer loop
vertex 13.0001 -13.9999 3.0001
vertex 12.0001 -13.9999 0
vertex 12.0001 -13.9999 3.0001
endloop
endfacet
endsolid csg.js
